# File created by Blade
# Date/Time:  Thu Jan 22 19:29:47 2015
#---------------------------------------------------------
:version 1.10
:name HOM
:units
  mass 1.0
  length 1.000000
  angle deg
:documentation
     Acclaim Skeleton File
:root
   axis xyz
   order TX TY TZ RX RY RZ
   position 0.000000 0.000000 0.000000
   orientation 0 0 0
:bonedata
   begin
      id 1
      name RightUpLeg_dum
      direction -1.000000 0.000000 0.000000
      length 4.478084
      axis 0.0 0.0 0.0 xyz
   end
   begin
      id 2
      name LeftUpLeg_dum
      direction 1.000000 0.000000 0.000000
      length 4.478084
      axis 0.0 0.0 0.0 xyz
   end
   begin
      id 3
      name Spine_dum
      direction 0.000000 1.000000 0.000000
      length 6.068208
      axis 0.0 0.0 0.0 xyz
   end
   begin
      id 4
      name RightUpLeg
      direction 0.000000 -1.000000 0.000000
      length 16.405774
      axis 0.0 0.0 0.0 xyz
      dof rx ry rz
   end
   begin
      id 5
      name RightLeg
      direction 0.000000 -1.000000 0.000000
      length 14.644143
      axis 0.0 0.0 0.0 xyz
      dof rx ry rz
   end
   begin
      id 6
      name RightFoot
      direction 0.000000 -0.258819 0.965926
      length 5.806150
      axis 15.0 0.0 0.0 xyz
      dof rx ry rz
   end
   begin
      id 7
      name RightToeBase
      direction 0.000000 0.000000 1.000000
      length 2.952750
      axis 0.0 0.0 0.0 xyz
      dof rx ry rz
   end
   begin
      id 8
      name LeftUpLeg
      direction 0.000000 -1.000000 0.000000
      length 16.405774
      axis 0.0 0.0 0.0 xyz
      dof rx ry rz
   end
   begin
      id 9
      name LeftLeg
      direction 0.000000 -1.000000 0.000000
      length 14.644143
      axis 0.0 0.0 0.0 xyz
      dof rx ry rz
   end
   begin
      id 10
      name LeftFoot
      direction 0.000000 -0.258819 0.965926
      length 5.806150
      axis 15.0 0.0 0.0 xyz
      dof rx ry rz
   end
   begin
      id 11
      name LeftToeBase
      direction 0.000000 0.000000 1.000000
      length 2.952750
      axis 0.0 0.0 0.0 xyz
      dof rx ry rz
   end
   begin
      id 12
      name Spine
      direction 0.000000 1.000000 0.000000
      length 0.000000
      axis 0.0 0.0 0.0 xyz
      dof rx ry rz
   end
   begin
      id 13
      name Spine_dum1
      direction 0.000000 1.000000 0.000000
      length 10.013923
      axis 0.0 0.0 0.0 xyz
   end
   begin
      id 14
      name Spine_dum2
      direction 0.000000 1.000000 0.000000
      length 10.013923
      axis 0.0 0.0 0.0 xyz
   end
   begin
      id 15
      name Spine_dum3
      direction 0.000000 1.000000 0.000000
      length 15.777476
      axis 0.0 0.0 0.0 xyz
   end
   begin
      id 16
      name RightShoulder
      direction -1.000000 0.000000 0.000000
      length 7.190220
      axis 0.0 0.0 90.0 xyz
      dof rx ry rz
   end
   begin
      id 17
      name RightArm
      direction -1.000000 0.000000 0.000000
      length 10.177469
      axis 0.0 0.0 90.0 xyz
      dof rx ry rz
   end
   begin
      id 18
      name RightForeArm
      direction -1.000000 0.000000 0.000000
      length 8.392114
      axis 0.0 0.0 90.0 xyz
      dof ry rz rx
   end
   begin
      id 19
      name RightHand
      direction -1.000000 0.000000 0.000000
      length 0.000000
      axis 0.0 0.0 90.0 xyz
      dof rx ry rz
   end
   begin
      id 20
      name RightHand_dum1
      direction -1.000000 0.000000 0.000000
      length 3.937000
      axis 0.0 0.0 90.0 xyz
   end
   begin
      id 21
      name RightHand_dum2
      direction 0.000000 0.000000 0.000000
      length 0.000000
      axis 0.0 0.0 90.0 xyz
   end
   begin
      id 22
      name RightHandThumb1
      direction 0.000000 0.000000 1.000000
      length 3.937000
      axis 0.0 0.0 90.0 xyz
      dof rx rz ry
   end
   begin
      id 23
      name LeftShoulder
      direction 1.000000 0.000000 0.000000
      length 7.190220
      axis 0.0 0.0 -90.0 xyz
      dof rx ry rz
   end
   begin
      id 24
      name LeftArm
      direction 1.000000 0.000000 0.000000
      length 10.177469
      axis 0.0 0.0 -90.0 xyz
      dof rx ry rz
   end
   begin
      id 25
      name LeftForeArm
      direction 1.000000 0.000000 0.000000
      length 8.392114
      axis 0.0 0.0 -90.0 xyz
      dof ry rz rx
   end
   begin
      id 26
      name LeftHand
      direction 1.000000 0.000000 0.000000
      length 0.000000
      axis 0.0 0.0 -90.0 xyz
      dof rx ry rz
   end
   begin
      id 27
      name LeftHand_dum1
      direction 1.000000 0.000000 0.000000
      length 3.937000
      axis 0.0 0.0 -90.0 xyz
   end
   begin
      id 28
      name LeftHand_dum2
      direction 0.000000 0.000000 0.000000
      length 0.000000
      axis 0.0 0.0 -90.0 xyz
   end
   begin
      id 29
      name LeftHandThumb1
      direction 0.000000 0.000000 1.000000
      length 3.937000
      axis 0.0 0.0 -90.0 xyz
      dof rx rz ry
   end
   begin
      id 30
      name Head
      direction 0.000000 1.000000 0.000000
      length 4.527550
      axis 0.0 0.0 0.0 xyz
      dof rx ry rz
   end
:hierarchy
   begin
      root RightUpLeg_dum LeftUpLeg_dum Spine_dum
      RightUpLeg_dum RightUpLeg
      LeftUpLeg_dum LeftUpLeg
      Spine_dum Spine
      RightUpLeg RightLeg
      RightLeg RightFoot
      RightFoot RightToeBase
      LeftUpLeg LeftLeg
      LeftLeg LeftFoot
      LeftFoot LeftToeBase
      Spine Spine_dum1 Spine_dum2 Spine_dum3
      Spine_dum1 RightShoulder
      Spine_dum2 LeftShoulder
      Spine_dum3 Head
      RightShoulder RightArm
      RightArm RightForeArm
      RightForeArm RightHand
      RightHand RightHand_dum1 RightHand_dum2
      RightHand_dum2 RightHandThumb1
      LeftShoulder LeftArm
      LeftArm LeftForeArm
      LeftForeArm LeftHand
      LeftHand LeftHand_dum1 LeftHand_dum2
      LeftHand_dum2 LeftHandThumb1
   end

# File created by Blade
# Date/Time:  Thu Jan 22 19:29:39 2015
# Frame Rate: 120.000 fps
#------------------------------------------------------
:FULLY-SPECIFIED
:DEGREES
523
root 1.776337 33.769057 -0.097917 18.191918 -9.556695 -12.364548
RightUpLeg -78.646534 -9.040527 -23.405648
RightLeg 139.717487 -0.000000 -0.000000
RightFoot 9.250957 12.356984 -2.107702
RightToeBase 3.687352 -0.000000 -0.000000
LeftUpLeg -24.919614 5.265123 2.641803
LeftLeg 19.146552 -0.000000 -0.000000
LeftFoot -13.425737 2.766490 -4.938238
LeftToeBase 7.386529 -0.000000 -0.000000
Spine 15.014380 -2.529570 22.253336
RightShoulder 0.049012 -7.384857 -14.875975
RightArm 31.163767 -12.143655 59.311494
RightForeArm -5.868537 -0.000000 15.244439
RightHand 9.288760 -0.000000 7.691044
RightHandThumb1 -24.326973 -0.000000 -32.862282
LeftShoulder -17.874108 -14.598430 35.216125
LeftArm 61.464582 -10.115134 -81.169431
LeftForeArm -10.905280 -0.000000 46.131405
LeftHand -6.847533 0.000000 17.804373
LeftHandThumb1 -26.253704 0.000000 33.147579
Head -11.460865 9.424312 -17.783111
524
root 1.801647 33.784536 -0.088142 18.187658 -9.347970 -12.692104
RightUpLeg -78.964042 -9.342719 -24.309886
RightLeg 140.671616 -0.000000 -0.000000
RightFoot 9.347669 12.404908 -3.063997
RightToeBase 3.527135 -0.000000 -0.000000
LeftUpLeg -24.986331 5.139264 2.995413
LeftLeg 19.367046 -0.000000 -0.000000
LeftFoot -13.521765 2.732752 -5.029891
LeftToeBase 7.551205 -0.000000 -0.000000
Spine 15.168016 -2.607186 22.849521
RightShoulder 0.080170 -7.344499 -14.737796
RightArm 30.883116 -11.709301 59.452276
RightForeArm -5.930956 -0.000000 14.725629
RightHand 9.230780 -0.000000 8.326202
RightHandThumb1 -24.326973 -0.000000 -32.862282
LeftShoulder -17.835074 -14.701792 35.264210
LeftArm 61.302638 -10.174777 -81.287289
LeftForeArm -10.964422 -0.000000 46.367653
LeftHand -6.852122 -0.000000 17.836574
LeftHandThumb1 -26.253704 0.000000 33.147579
Head -11.601247 9.357236 -17.922910
525
root 1.818370 33.801537 -0.071518 18.141939 -9.081030 -13.094102
RightUpLeg -79.147604 -9.595690 -25.044129
RightLeg 141.534825 -0.000000 -0.000000
RightFoot 9.533729 12.383673 -3.931837
RightToeBase 3.620896 -0.000000 -0.000000
LeftUpLeg -25.016503 5.029917 3.442334
LeftLeg 19.629859 -0.000000 -0.000000
LeftFoot -13.655922 2.653630 -5.064355
LeftToeBase 7.630378 -0.000000 -0.000000
Spine 15.344393 -2.735905 23.533720
RightShoulder 0.094285 -7.364776 -14.544300
RightArm 30.592574 -11.213689 59.539227
RightForeArm -5.985150 -0.000000 14.321853
RightHand 8.990335 0.000000 8.998011
RightHandThumb1 -24.326973 -0.000000 -32.862282
LeftShoulder -17.780118 -14.895610 35.334321
LeftArm 61.017585 -10.218645 -81.287401
LeftForeArm -11.104062 -0.000000 46.628493
LeftHand -6.887854 -0.000000 17.797331
LeftHandThumb1 -26.253704 0.000000 33.147579
Head -11.738057 9.303615 -18.016775
526
root 1.836609 33.819407 -0.062226 18.120312 -8.862638 -13.472522
RightUpLeg -79.300907 -9.783491 -25.907979
RightLeg 142.309546 -0.000000 -0.000000
RightFoot 9.764499 12.780632 -4.563945
RightToeBase 3.536721 -0.000000 -0.000000
LeftUpLeg -25.044823 4.886908 3.883845
LeftLeg 19.823897 -0.000000 -0.000000
LeftFoot -13.758541 2.577660 -5.195329
LeftToeBase 7.663913 -0.000000 -0.000000
Spine 15.517055 -2.815648 24.158517
RightShoulder 0.074476 -7.485366 -14.331777
RightArm 30.439185 -10.811102 59.519452
RightForeArm -5.731990 0.000000 13.909095
RightHand 8.931431 0.000000 8.813743
RightHandThumb1 -24.326973 -0.000000 -32.862282
LeftShoulder -17.721084 -15.060186 35.426520
LeftArm 60.769927 -10.277687 -81.287503
LeftForeArm -11.287978 -0.000000 46.868684
LeftHand -6.844291 -0.000000 17.671581
LeftHandThumb1 -26.253704 0.000000 33.147579
Head -11.873132 9.280058 -18.063863
527
root 1.852482 33.837000 -0.045689 18.056760 -8.592036 -13.877928
RightUpLeg -79.342915 -9.988771 -26.647111
RightLeg 142.948438 -0.000000 -0.000000
RightFoot 10.229325 13.279670 -5.430632
RightToeBase 3.184772 -0.000000 -0.000000
LeftUpLeg -25.100086 4.847950 4.309652
LeftLeg 20.151063 -0.000000 -0.000000
LeftFoot -13.875506 2.456053 -5.164301
LeftToeBase 7.742834 -0.000000 -0.000000
Spine 15.698388 -2.966008 24.830877
RightShoulder 0.045319 -7.582743 -14.115781
RightArm 30.210092 -10.303285 59.547138
RightForeArm -5.624521 -0.000000 13.585352
RightHand 8.877790 -0.000000 9.885016
RightHandThumb1 -24.326973 -0.000000 -32.862282
LeftShoulder -17.646762 -15.194395 35.525474
LeftArm 60.504472 -10.347017 -81.269709
LeftForeArm -11.488923 -0.000000 47.149941
LeftHand -6.878447 0.000000 17.732718
LeftHandThumb1 -26.253704 0.000000 33.147579
Head -12.018296 9.274692 -18.101137
528
root 1.863780 33.854495 -0.033032 18.001526 -8.307779 -14.286907
RightUpLeg -79.382695 -10.174367 -27.298458
RightLeg 143.526795 -0.000000 -0.000000
RightFoot 10.880860 14.004463 -6.548933
RightToeBase 2.611870 -0.000000 -0.000000
LeftUpLeg -25.190305 4.723810 4.768164
LeftLeg 20.510507 -0.000000 -0.000000
LeftFoot -14.005288 2.428608 -5.132085
LeftToeBase 7.717590 -0.000000 -0.000000
Spine 15.887859 -3.087278 25.472066
RightShoulder -0.069882 -7.677449 -13.817818
RightArm 30.044791 -9.994399 59.407900
RightForeArm -5.491140 0.000000 13.265623
RightHand 8.847345 -0.000000 10.501955
RightHandThumb1 -24.326973 -0.000000 -32.862282
LeftShoulder -17.614313 -15.264825 35.698287
LeftArm 60.410377 -10.421057 -81.495199
LeftForeArm -11.503905 -0.000000 47.313633
LeftHand -6.838112 -0.000000 17.546401
LeftHandThumb1 -26.253704 0.000000 33.147579
Head -12.223333 9.234087 -18.023648
529
root 1.871750 33.874562 -0.016681 17.911979 -7.983313 -14.716558
RightUpLeg -79.280987 -10.366259 -27.849918
RightLeg 143.990450 -0.000000 -0.000000
RightFoot 11.655101 14.835710 -7.782143
RightToeBase 2.006209 -0.000000 -0.000000
LeftUpLeg -25.252647 4.594407 5.251056
LeftLeg 20.872085 -0.000000 -0.000000
LeftFoot -14.119084 2.403730 -5.088380
LeftToeBase 7.681974 -0.000000 -0.000000
Spine 16.085447 -3.320593 26.138401
RightShoulder -0.151795 -7.841186 -13.546579
RightArm 29.961074 -9.588545 59.324343
RightForeArm -5.651204 -0.000000 12.937877
RightHand 8.706462 0.000000 10.502542
RightHandThumb1 -24.326973 -0.000000 -32.862282
LeftShoulder -17.626520 -15.250218 35.826653
LeftArm 60.370793 -10.477456 -81.614998
LeftForeArm -11.615004 -0.000000 47.461552
LeftHand -6.782591 -0.000000 17.368689
LeftHandThumb1 -26.253704 0.000000 33.147579
Head -12.429195 9.224073 -17.952993
530
root 1.880961 33.897524 -0.000486 17.820714 -7.670439 -15.159331
RightUpLeg -79.182493 -10.494187 -28.234666
RightLeg 144.359526 -0.000000 -0.000000
RightFoot 12.863201 15.384037 -8.370197
RightToeBase 1.466141 -0.000000 -0.000000
LeftUpLeg -25.280988 4.478696 5.742215
LeftLeg 21.169859 -0.000000 -0.000000
LeftFoot -14.202136 2.380782 -5.002703
LeftToeBase 7.632198 -0.000000 -0.000000
Spine 16.288556 -3.498080 26.818925
RightShoulder -0.249719 -7.847516 -13.264705
RightArm 29.656526 -9.280573 59.209850
RightForeArm -5.741930 -0.000000 12.725275
RightHand 8.783970 0.000000 11.781759
RightHandThumb1 -24.326973 -0.000000 -32.862282
LeftShoulder -17.589765 -15.359202 36.000815
LeftArm 60.246223 -10.536210 -81.817917
LeftForeArm -11.633313 -0.000000 47.610666
LeftHand -6.842015 0.000000 17.354876
LeftHandThumb1 -26.253704 0.000000 33.147579
Head -12.621503 9.188647 -17.810234
531
root 1.888439 33.919782 0.015303 17.738357 -7.326109 -15.598211
RightUpLeg -79.037874 -10.644150 -28.546740
RightLeg 144.632017 -0.000000 -0.000000
RightFoot 14.332450 15.717347 -8.358297
RightToeBase 1.570541 -0.000000 -0.000000
LeftUpLeg -25.318020 4.351123 6.237518
LeftLeg 21.443492 -0.000000 -0.000000
LeftFoot -14.290472 2.323212 -4.921180
LeftToeBase 7.669066 -0.000000 -0.000000
Spine 16.453657 -3.746041 27.462142
RightShoulder -0.459470 -8.166006 -12.926803
RightArm 29.839062 -9.092141 58.892391
RightForeArm -5.973384 -0.000000 12.411771
RightHand 8.518469 -0.000000 12.256215
RightHandThumb1 -24.326973 -0.000000 -32.862282
LeftShoulder -17.599419 -15.412092 36.178959
LeftArm 59.998023 -10.462950 -81.514084
LeftForeArm -12.098833 -0.000000 47.903592
LeftHand -6.699339 -0.000000 17.571165
LeftHandThumb1 -26.253704 0.000000 33.147579
Head -12.810012 9.216203 -17.579292
532
root 1.893795 33.938017 0.030297 17.647592 -6.995838 -16.002654
RightUpLeg -78.901387 -10.798852 -28.788410
RightLeg 144.854584 -0.000000 -0.000000
RightFoot 16.028988 15.839359 -8.025992
RightToeBase 1.814039 -0.000000 -0.000000
LeftUpLeg -25.348677 4.272311 6.687555
LeftLeg 21.707197 -0.000000 -0.000000
LeftFoot -14.391239 2.226301 -4.841235
LeftToeBase 7.619441 -0.000000 -0.000000
Spine 16.599799 -3.986092 28.009615
RightShoulder -0.617081 -8.395860 -12.578590
RightArm 29.853522 -8.915766 58.623803
RightForeArm -6.135157 -0.000000 12.165970
RightHand 8.260305 -0.000000 13.071163
RightHandThumb1 -24.326973 -0.000000 -32.862282
LeftShoulder -17.641710 -15.246396 36.336876
LeftArm 60.264634 -10.456868 -81.745693
LeftForeArm -11.985572 -0.000000 47.852060
LeftHand -6.706687 -0.000000 17.474965
LeftHandThumb1 -26.253704 0.000000 33.147579
Head -12.961647 9.293190 -17.229210
533
root 1.899540 33.957980 0.046309 17.578879 -6.691211 -16.400140
RightUpLeg -78.817238 -10.920818 -28.903749
RightLeg 145.003339 -0.000000 -0.000000
RightFoot 17.945814 15.833764 -7.421843
RightToeBase 2.382318 -0.000000 -0.000000
LeftUpLeg -25.379232 4.200881 7.128747
LeftLeg 21.932562 -0.000000 -0.000000
LeftFoot -14.476190 2.131095 -4.775379
LeftToeBase 7.695444 -0.000000 -0.000000
Spine 16.708077 -4.190580 28.555800
RightShoulder -0.779307 -8.529287 -12.285649
RightArm 29.705457 -8.662671 58.517304
RightForeArm -6.435771 -0.000000 11.966215
RightHand 8.027769 -0.000000 13.586469
RightHandThumb1 -24.326973 -0.000000 -32.862282
LeftShoulder -17.602646 -15.289912 36.518513
LeftArm 60.147903 -10.402613 -81.535551
LeftForeArm -12.264290 -0.000000 47.986253
LeftHand -6.643126 -0.000000 17.738341
LeftHandThumb1 -26.253704 0.000000 33.147579
Head -13.057201 9.305855 -16.905125
534
root 1.905425 33.974644 0.064443 17.508477 -6.391704 -16.745301
RightUpLeg -78.737750 -11.099085 -28.945257
RightLeg 145.138775 -0.000000 -0.000000
RightFoot 19.853372 15.897699 -7.158206
RightToeBase 2.501348 -0.000000 -0.000000
LeftUpLeg -25.409428 4.141090 7.515668
LeftLeg 22.144308 -0.000000 -0.000000
LeftFoot -14.554893 2.000204 -4.746840
LeftToeBase 7.560594 -0.000000 -0.000000
Spine 16.788806 -4.378268 29.019261
RightShoulder -1.022543 -8.756722 -11.931497
RightArm 29.672844 -8.444796 58.342158
RightForeArm -6.885568 0.000000 11.751789
RightHand 7.814131 -0.000000 14.459303
RightHandThumb1 -24.326973 -0.000000 -32.862282
LeftShoulder -17.571833 -15.354249 36.742759
LeftArm 60.080836 -10.339051 -81.482121
LeftForeArm -12.411579 -0.000000 48.044012
LeftHand -6.584998 0.000000 17.801503
LeftHandThumb1 -26.253704 0.000000 33.147579
Head -13.144405 9.340830 -16.476495
535
root 1.909842 33.993332 0.080257 17.461132 -6.138482 -17.096283
RightUpLeg -78.658488 -11.217902 -28.906442
RightLeg 145.236367 -0.000000 -0.000000
RightFoot 21.468122 16.023264 -6.957413
RightToeBase 2.730622 -0.000000 -0.000000
LeftUpLeg -25.457621 4.152829 7.894527
LeftLeg 22.359150 -0.000000 -0.000000
LeftFoot -14.633229 1.820960 -4.794405
LeftToeBase 7.654806 -0.000000 -0.000000
Spine 16.869179 -4.594174 29.437900
RightShoulder -1.192735 -8.977588 -11.617456
RightArm 29.646084 -8.251545 58.201148
RightForeArm -7.266547 -0.000000 11.501160
RightHand 7.537871 -0.000000 15.261256
RightHandThumb1 -24.326973 -0.000000 -32.862282
LeftShoulder -17.562424 -15.411975 36.957317
LeftArm 59.991120 -10.311209 -81.374427
LeftForeArm -12.552914 -0.000000 48.139964
LeftHand -6.587882 0.000000 17.905705
LeftHandThumb1 -26.253704 0.000000 33.147579
Head -13.252534 9.460499 -16.094429
